<mxfile host="app.diagrams.net" agent="Mozilla/5.0 (Windows NT 10.0; Win64; x64) AppleWebKit/537.36 (KHTML, like Gecko) Chrome/130.0.0.0 Safari/537.36" version="24.8.3">
  <diagram name="Page-1" id="s4L8Sntx4Ci7C02Xo0Ck">
    <mxGraphModel dx="1671" dy="868" grid="1" gridSize="10" guides="1" tooltips="1" connect="1" arrows="1" fold="1" page="1" pageScale="1" pageWidth="1200" pageHeight="1920" math="0" shadow="0">
      <root>
        <mxCell id="0" />
        <mxCell id="1" parent="0" />
        <mxCell id="3lpn1C94WYs1K-eASdYT-1" value="APP" style="rounded=0;whiteSpace=wrap;html=1;fillColor=#f8cecc;strokeColor=#b85450;" parent="1" vertex="1">
          <mxGeometry x="565" y="680" width="120" height="60" as="geometry" />
        </mxCell>
        <mxCell id="3lpn1C94WYs1K-eASdYT-8" style="edgeStyle=orthogonalEdgeStyle;rounded=0;orthogonalLoop=1;jettySize=auto;html=1;exitX=0;exitY=0.5;exitDx=0;exitDy=0;entryX=0.5;entryY=0;entryDx=0;entryDy=0;" parent="1" source="3lpn1C94WYs1K-eASdYT-6" target="3lpn1C94WYs1K-eASdYT-7" edge="1">
          <mxGeometry relative="1" as="geometry" />
        </mxCell>
        <mxCell id="3lpn1C94WYs1K-eASdYT-10" style="edgeStyle=orthogonalEdgeStyle;rounded=0;orthogonalLoop=1;jettySize=auto;html=1;exitX=0.5;exitY=1;exitDx=0;exitDy=0;entryX=0.5;entryY=0;entryDx=0;entryDy=0;" parent="1" source="3lpn1C94WYs1K-eASdYT-6" target="3lpn1C94WYs1K-eASdYT-9" edge="1">
          <mxGeometry relative="1" as="geometry" />
        </mxCell>
        <mxCell id="3lpn1C94WYs1K-eASdYT-12" style="edgeStyle=orthogonalEdgeStyle;rounded=0;orthogonalLoop=1;jettySize=auto;html=1;exitX=1;exitY=0.5;exitDx=0;exitDy=0;entryX=0.5;entryY=0;entryDx=0;entryDy=0;" parent="1" source="3lpn1C94WYs1K-eASdYT-6" target="3lpn1C94WYs1K-eASdYT-11" edge="1">
          <mxGeometry relative="1" as="geometry" />
        </mxCell>
        <mxCell id="3lpn1C94WYs1K-eASdYT-75" style="edgeStyle=orthogonalEdgeStyle;rounded=0;orthogonalLoop=1;jettySize=auto;html=1;exitX=0.5;exitY=0;exitDx=0;exitDy=0;entryX=1;entryY=0.5;entryDx=0;entryDy=0;fillColor=#dae8fc;strokeColor=#6c8ebf;" parent="1" source="3lpn1C94WYs1K-eASdYT-6" target="3lpn1C94WYs1K-eASdYT-1" edge="1">
          <mxGeometry relative="1" as="geometry">
            <Array as="points">
              <mxPoint x="625" y="100" />
              <mxPoint x="1100" y="100" />
              <mxPoint x="1100" y="710" />
            </Array>
          </mxGeometry>
        </mxCell>
        <mxCell id="3lpn1C94WYs1K-eASdYT-6" value="Games" style="rounded=0;whiteSpace=wrap;html=1;fillColor=#dae8fc;strokeColor=#6c8ebf;" parent="1" vertex="1">
          <mxGeometry x="565" y="120" width="120" height="60" as="geometry" />
        </mxCell>
        <mxCell id="ze-Fdz6wnuU6C7X-WiTB-3" style="edgeStyle=orthogonalEdgeStyle;rounded=0;orthogonalLoop=1;jettySize=auto;html=1;exitX=0;exitY=0.75;exitDx=0;exitDy=0;entryX=0;entryY=0.25;entryDx=0;entryDy=0;dashed=1;dashPattern=12 12;" edge="1" parent="1" source="3lpn1C94WYs1K-eASdYT-7" target="3lpn1C94WYs1K-eASdYT-83">
          <mxGeometry relative="1" as="geometry">
            <Array as="points">
              <mxPoint x="150" y="285" />
              <mxPoint x="150" y="845" />
            </Array>
          </mxGeometry>
        </mxCell>
        <mxCell id="3lpn1C94WYs1K-eASdYT-7" value="UNDERDOG" style="rounded=0;whiteSpace=wrap;html=1;fillColor=#dae8fc;strokeColor=#6c8ebf;" parent="1" vertex="1">
          <mxGeometry x="325" y="240" width="120" height="60" as="geometry" />
        </mxCell>
        <mxCell id="3lpn1C94WYs1K-eASdYT-15" style="edgeStyle=orthogonalEdgeStyle;rounded=0;orthogonalLoop=1;jettySize=auto;html=1;exitX=0;exitY=0.5;exitDx=0;exitDy=0;entryX=0.5;entryY=0;entryDx=0;entryDy=0;" parent="1" source="3lpn1C94WYs1K-eASdYT-9" target="3lpn1C94WYs1K-eASdYT-13" edge="1">
          <mxGeometry relative="1" as="geometry" />
        </mxCell>
        <mxCell id="3lpn1C94WYs1K-eASdYT-16" style="edgeStyle=orthogonalEdgeStyle;rounded=0;orthogonalLoop=1;jettySize=auto;html=1;exitX=1;exitY=0.5;exitDx=0;exitDy=0;entryX=0.5;entryY=0;entryDx=0;entryDy=0;" parent="1" source="3lpn1C94WYs1K-eASdYT-9" target="3lpn1C94WYs1K-eASdYT-14" edge="1">
          <mxGeometry relative="1" as="geometry" />
        </mxCell>
        <mxCell id="ze-Fdz6wnuU6C7X-WiTB-4" style="edgeStyle=orthogonalEdgeStyle;rounded=0;orthogonalLoop=1;jettySize=auto;html=1;exitX=0;exitY=0.5;exitDx=0;exitDy=0;entryX=0;entryY=0.25;entryDx=0;entryDy=0;dashed=1;dashPattern=12 12;" edge="1" parent="1" source="3lpn1C94WYs1K-eASdYT-9" target="3lpn1C94WYs1K-eASdYT-83">
          <mxGeometry relative="1" as="geometry">
            <Array as="points">
              <mxPoint x="480" y="270" />
              <mxPoint x="480" y="330" />
              <mxPoint x="420" y="330" />
              <mxPoint x="420" y="845" />
            </Array>
          </mxGeometry>
        </mxCell>
        <mxCell id="3lpn1C94WYs1K-eASdYT-9" value="RABBIT_HOLE" style="rounded=0;whiteSpace=wrap;html=1;fillColor=#dae8fc;strokeColor=#6c8ebf;" parent="1" vertex="1">
          <mxGeometry x="565" y="240" width="120" height="60" as="geometry" />
        </mxCell>
        <mxCell id="ze-Fdz6wnuU6C7X-WiTB-5" style="edgeStyle=orthogonalEdgeStyle;rounded=0;orthogonalLoop=1;jettySize=auto;html=1;exitX=0.25;exitY=1;exitDx=0;exitDy=0;entryX=0.25;entryY=0;entryDx=0;entryDy=0;dashed=1;dashPattern=12 12;" edge="1" parent="1" source="3lpn1C94WYs1K-eASdYT-11" target="3lpn1C94WYs1K-eASdYT-83">
          <mxGeometry relative="1" as="geometry">
            <Array as="points">
              <mxPoint x="830" y="300" />
              <mxPoint x="830" y="660" />
              <mxPoint x="485" y="660" />
            </Array>
          </mxGeometry>
        </mxCell>
        <mxCell id="3lpn1C94WYs1K-eASdYT-11" value="BULLRUN" style="rounded=0;whiteSpace=wrap;html=1;fillColor=#dae8fc;strokeColor=#6c8ebf;" parent="1" vertex="1">
          <mxGeometry x="795" y="240" width="120" height="60" as="geometry" />
        </mxCell>
        <mxCell id="3lpn1C94WYs1K-eASdYT-13" value="v1" style="rounded=0;whiteSpace=wrap;html=1;" parent="1" vertex="1">
          <mxGeometry x="515" y="340" width="60" height="50" as="geometry" />
        </mxCell>
        <mxCell id="3lpn1C94WYs1K-eASdYT-14" value="v2" style="rounded=0;whiteSpace=wrap;html=1;" parent="1" vertex="1">
          <mxGeometry x="675" y="340" width="60" height="50" as="geometry" />
        </mxCell>
        <mxCell id="3lpn1C94WYs1K-eASdYT-31" style="edgeStyle=orthogonalEdgeStyle;rounded=0;orthogonalLoop=1;jettySize=auto;html=1;exitX=0;exitY=0.5;exitDx=0;exitDy=0;entryX=0;entryY=0.5;entryDx=0;entryDy=0;" parent="1" source="3lpn1C94WYs1K-eASdYT-17" target="3lpn1C94WYs1K-eASdYT-13" edge="1">
          <mxGeometry relative="1" as="geometry" />
        </mxCell>
        <mxCell id="3lpn1C94WYs1K-eASdYT-40" style="edgeStyle=orthogonalEdgeStyle;rounded=0;orthogonalLoop=1;jettySize=auto;html=1;exitX=1;exitY=0.5;exitDx=0;exitDy=0;entryX=0;entryY=0.5;entryDx=0;entryDy=0;" parent="1" source="3lpn1C94WYs1K-eASdYT-17" target="3lpn1C94WYs1K-eASdYT-38" edge="1">
          <mxGeometry relative="1" as="geometry" />
        </mxCell>
        <mxCell id="3lpn1C94WYs1K-eASdYT-17" value="DB" style="rounded=0;whiteSpace=wrap;html=1;" parent="1" vertex="1">
          <mxGeometry x="465" y="430" width="60" height="50" as="geometry" />
        </mxCell>
        <mxCell id="3lpn1C94WYs1K-eASdYT-29" style="edgeStyle=orthogonalEdgeStyle;rounded=0;orthogonalLoop=1;jettySize=auto;html=1;exitX=0;exitY=0.5;exitDx=0;exitDy=0;entryX=0;entryY=0.5;entryDx=0;entryDy=0;" parent="1" source="3lpn1C94WYs1K-eASdYT-19" target="3lpn1C94WYs1K-eASdYT-13" edge="1">
          <mxGeometry relative="1" as="geometry" />
        </mxCell>
        <mxCell id="3lpn1C94WYs1K-eASdYT-42" style="edgeStyle=orthogonalEdgeStyle;rounded=0;orthogonalLoop=1;jettySize=auto;html=1;exitX=1;exitY=0.5;exitDx=0;exitDy=0;entryX=0;entryY=0.5;entryDx=0;entryDy=0;" parent="1" source="3lpn1C94WYs1K-eASdYT-19" target="3lpn1C94WYs1K-eASdYT-41" edge="1">
          <mxGeometry relative="1" as="geometry" />
        </mxCell>
        <mxCell id="3lpn1C94WYs1K-eASdYT-19" value="HTTP handlers" style="rounded=0;whiteSpace=wrap;html=1;" parent="1" vertex="1">
          <mxGeometry x="465" y="500" width="60" height="50" as="geometry" />
        </mxCell>
        <mxCell id="3lpn1C94WYs1K-eASdYT-32" style="edgeStyle=orthogonalEdgeStyle;rounded=0;orthogonalLoop=1;jettySize=auto;html=1;exitX=0;exitY=0.5;exitDx=0;exitDy=0;entryX=0;entryY=0.5;entryDx=0;entryDy=0;" parent="1" source="3lpn1C94WYs1K-eASdYT-21" target="3lpn1C94WYs1K-eASdYT-13" edge="1">
          <mxGeometry relative="1" as="geometry" />
        </mxCell>
        <mxCell id="3lpn1C94WYs1K-eASdYT-45" style="edgeStyle=orthogonalEdgeStyle;rounded=0;orthogonalLoop=1;jettySize=auto;html=1;exitX=1;exitY=0.5;exitDx=0;exitDy=0;entryX=0;entryY=0.5;entryDx=0;entryDy=0;" parent="1" source="3lpn1C94WYs1K-eASdYT-21" target="3lpn1C94WYs1K-eASdYT-44" edge="1">
          <mxGeometry relative="1" as="geometry" />
        </mxCell>
        <mxCell id="3lpn1C94WYs1K-eASdYT-21" value="Socket" style="rounded=0;whiteSpace=wrap;html=1;" parent="1" vertex="1">
          <mxGeometry x="465" y="570" width="60" height="50" as="geometry" />
        </mxCell>
        <mxCell id="3lpn1C94WYs1K-eASdYT-35" style="edgeStyle=orthogonalEdgeStyle;rounded=0;orthogonalLoop=1;jettySize=auto;html=1;exitX=1;exitY=0.5;exitDx=0;exitDy=0;entryX=1;entryY=0.5;entryDx=0;entryDy=0;" parent="1" source="3lpn1C94WYs1K-eASdYT-23" target="3lpn1C94WYs1K-eASdYT-14" edge="1">
          <mxGeometry relative="1" as="geometry" />
        </mxCell>
        <mxCell id="3lpn1C94WYs1K-eASdYT-39" style="edgeStyle=orthogonalEdgeStyle;rounded=0;orthogonalLoop=1;jettySize=auto;html=1;exitX=0;exitY=0.5;exitDx=0;exitDy=0;entryX=1;entryY=0.5;entryDx=0;entryDy=0;" parent="1" source="3lpn1C94WYs1K-eASdYT-23" target="3lpn1C94WYs1K-eASdYT-38" edge="1">
          <mxGeometry relative="1" as="geometry" />
        </mxCell>
        <mxCell id="3lpn1C94WYs1K-eASdYT-23" value="DB" style="rounded=0;whiteSpace=wrap;html=1;" parent="1" vertex="1">
          <mxGeometry x="725" y="430" width="60" height="50" as="geometry" />
        </mxCell>
        <mxCell id="3lpn1C94WYs1K-eASdYT-36" style="edgeStyle=orthogonalEdgeStyle;rounded=0;orthogonalLoop=1;jettySize=auto;html=1;exitX=1;exitY=0.5;exitDx=0;exitDy=0;entryX=1;entryY=0.5;entryDx=0;entryDy=0;" parent="1" source="3lpn1C94WYs1K-eASdYT-24" target="3lpn1C94WYs1K-eASdYT-14" edge="1">
          <mxGeometry relative="1" as="geometry" />
        </mxCell>
        <mxCell id="3lpn1C94WYs1K-eASdYT-43" style="edgeStyle=orthogonalEdgeStyle;rounded=0;orthogonalLoop=1;jettySize=auto;html=1;exitX=0;exitY=0.5;exitDx=0;exitDy=0;entryX=1;entryY=0.5;entryDx=0;entryDy=0;" parent="1" source="3lpn1C94WYs1K-eASdYT-24" target="3lpn1C94WYs1K-eASdYT-41" edge="1">
          <mxGeometry relative="1" as="geometry" />
        </mxCell>
        <mxCell id="3lpn1C94WYs1K-eASdYT-24" value="HTTP handlers" style="rounded=0;whiteSpace=wrap;html=1;" parent="1" vertex="1">
          <mxGeometry x="725" y="500" width="60" height="50" as="geometry" />
        </mxCell>
        <mxCell id="3lpn1C94WYs1K-eASdYT-37" style="edgeStyle=orthogonalEdgeStyle;rounded=0;orthogonalLoop=1;jettySize=auto;html=1;exitX=1;exitY=0.5;exitDx=0;exitDy=0;entryX=1;entryY=0.5;entryDx=0;entryDy=0;" parent="1" source="3lpn1C94WYs1K-eASdYT-25" target="3lpn1C94WYs1K-eASdYT-14" edge="1">
          <mxGeometry relative="1" as="geometry" />
        </mxCell>
        <mxCell id="3lpn1C94WYs1K-eASdYT-46" style="edgeStyle=orthogonalEdgeStyle;rounded=0;orthogonalLoop=1;jettySize=auto;html=1;exitX=0;exitY=0.5;exitDx=0;exitDy=0;entryX=1;entryY=0.5;entryDx=0;entryDy=0;" parent="1" source="3lpn1C94WYs1K-eASdYT-25" target="3lpn1C94WYs1K-eASdYT-44" edge="1">
          <mxGeometry relative="1" as="geometry" />
        </mxCell>
        <mxCell id="3lpn1C94WYs1K-eASdYT-25" value="Socket" style="rounded=0;whiteSpace=wrap;html=1;" parent="1" vertex="1">
          <mxGeometry x="725" y="570" width="60" height="50" as="geometry" />
        </mxCell>
        <mxCell id="3lpn1C94WYs1K-eASdYT-38" value="Models, Schemas" style="rounded=0;whiteSpace=wrap;html=1;" parent="1" vertex="1">
          <mxGeometry x="565" y="425" width="120" height="60" as="geometry" />
        </mxCell>
        <mxCell id="3lpn1C94WYs1K-eASdYT-41" value="handlers for user requests that are not related to the socket" style="rounded=0;whiteSpace=wrap;html=1;" parent="1" vertex="1">
          <mxGeometry x="565" y="495" width="120" height="60" as="geometry" />
        </mxCell>
        <mxCell id="3lpn1C94WYs1K-eASdYT-44" value="handlers, events, state update (DB)" style="rounded=0;whiteSpace=wrap;html=1;" parent="1" vertex="1">
          <mxGeometry x="565" y="565" width="120" height="60" as="geometry" />
        </mxCell>
        <mxCell id="3lpn1C94WYs1K-eASdYT-50" style="edgeStyle=orthogonalEdgeStyle;rounded=0;orthogonalLoop=1;jettySize=auto;html=1;exitX=0;exitY=0.5;exitDx=0;exitDy=0;entryX=0;entryY=0.5;entryDx=0;entryDy=0;" parent="1" source="3lpn1C94WYs1K-eASdYT-47" target="3lpn1C94WYs1K-eASdYT-7" edge="1">
          <mxGeometry relative="1" as="geometry" />
        </mxCell>
        <mxCell id="3lpn1C94WYs1K-eASdYT-54" style="edgeStyle=orthogonalEdgeStyle;rounded=0;orthogonalLoop=1;jettySize=auto;html=1;exitX=1;exitY=0.5;exitDx=0;exitDy=0;entryX=0;entryY=0.5;entryDx=0;entryDy=0;" parent="1" source="3lpn1C94WYs1K-eASdYT-47" target="3lpn1C94WYs1K-eASdYT-53" edge="1">
          <mxGeometry relative="1" as="geometry" />
        </mxCell>
        <mxCell id="3lpn1C94WYs1K-eASdYT-47" value="DB" style="rounded=0;whiteSpace=wrap;html=1;" parent="1" vertex="1">
          <mxGeometry x="200" y="325" width="60" height="50" as="geometry" />
        </mxCell>
        <mxCell id="3lpn1C94WYs1K-eASdYT-51" style="edgeStyle=orthogonalEdgeStyle;rounded=0;orthogonalLoop=1;jettySize=auto;html=1;exitX=0;exitY=0.5;exitDx=0;exitDy=0;entryX=0;entryY=0.5;entryDx=0;entryDy=0;" parent="1" source="3lpn1C94WYs1K-eASdYT-48" target="3lpn1C94WYs1K-eASdYT-7" edge="1">
          <mxGeometry relative="1" as="geometry" />
        </mxCell>
        <mxCell id="3lpn1C94WYs1K-eASdYT-56" style="edgeStyle=orthogonalEdgeStyle;rounded=0;orthogonalLoop=1;jettySize=auto;html=1;exitX=1;exitY=0.5;exitDx=0;exitDy=0;entryX=0;entryY=0.5;entryDx=0;entryDy=0;" parent="1" source="3lpn1C94WYs1K-eASdYT-48" target="3lpn1C94WYs1K-eASdYT-55" edge="1">
          <mxGeometry relative="1" as="geometry" />
        </mxCell>
        <mxCell id="3lpn1C94WYs1K-eASdYT-48" value="HTTP handlers" style="rounded=0;whiteSpace=wrap;html=1;" parent="1" vertex="1">
          <mxGeometry x="200" y="400" width="60" height="50" as="geometry" />
        </mxCell>
        <mxCell id="3lpn1C94WYs1K-eASdYT-52" style="edgeStyle=orthogonalEdgeStyle;rounded=0;orthogonalLoop=1;jettySize=auto;html=1;exitX=0;exitY=0.5;exitDx=0;exitDy=0;entryX=0;entryY=0.5;entryDx=0;entryDy=0;" parent="1" source="3lpn1C94WYs1K-eASdYT-49" target="3lpn1C94WYs1K-eASdYT-7" edge="1">
          <mxGeometry relative="1" as="geometry" />
        </mxCell>
        <mxCell id="3lpn1C94WYs1K-eASdYT-58" style="edgeStyle=orthogonalEdgeStyle;rounded=0;orthogonalLoop=1;jettySize=auto;html=1;exitX=1;exitY=0.5;exitDx=0;exitDy=0;entryX=0;entryY=0.5;entryDx=0;entryDy=0;" parent="1" source="3lpn1C94WYs1K-eASdYT-49" target="3lpn1C94WYs1K-eASdYT-57" edge="1">
          <mxGeometry relative="1" as="geometry" />
        </mxCell>
        <mxCell id="3lpn1C94WYs1K-eASdYT-49" value="Socket" style="rounded=0;whiteSpace=wrap;html=1;" parent="1" vertex="1">
          <mxGeometry x="200" y="470" width="60" height="50" as="geometry" />
        </mxCell>
        <mxCell id="3lpn1C94WYs1K-eASdYT-53" value="Models, Schemas" style="rounded=0;whiteSpace=wrap;html=1;" parent="1" vertex="1">
          <mxGeometry x="280" y="320" width="120" height="60" as="geometry" />
        </mxCell>
        <mxCell id="3lpn1C94WYs1K-eASdYT-55" value="handlers for user requests that are not related to the socket" style="rounded=0;whiteSpace=wrap;html=1;" parent="1" vertex="1">
          <mxGeometry x="280" y="395" width="120" height="60" as="geometry" />
        </mxCell>
        <mxCell id="3lpn1C94WYs1K-eASdYT-57" value="handlers, events, state update (DB)" style="rounded=0;whiteSpace=wrap;html=1;" parent="1" vertex="1">
          <mxGeometry x="280" y="465" width="120" height="60" as="geometry" />
        </mxCell>
        <mxCell id="3lpn1C94WYs1K-eASdYT-62" style="edgeStyle=orthogonalEdgeStyle;rounded=0;orthogonalLoop=1;jettySize=auto;html=1;exitX=1;exitY=0.5;exitDx=0;exitDy=0;entryX=1;entryY=0.5;entryDx=0;entryDy=0;" parent="1" source="3lpn1C94WYs1K-eASdYT-59" target="3lpn1C94WYs1K-eASdYT-11" edge="1">
          <mxGeometry relative="1" as="geometry" />
        </mxCell>
        <mxCell id="3lpn1C94WYs1K-eASdYT-68" style="edgeStyle=orthogonalEdgeStyle;rounded=0;orthogonalLoop=1;jettySize=auto;html=1;exitX=0;exitY=0.5;exitDx=0;exitDy=0;entryX=1;entryY=0.5;entryDx=0;entryDy=0;" parent="1" source="3lpn1C94WYs1K-eASdYT-59" target="3lpn1C94WYs1K-eASdYT-65" edge="1">
          <mxGeometry relative="1" as="geometry" />
        </mxCell>
        <mxCell id="3lpn1C94WYs1K-eASdYT-59" value="DB" style="rounded=0;whiteSpace=wrap;html=1;" parent="1" vertex="1">
          <mxGeometry x="990" y="325" width="60" height="50" as="geometry" />
        </mxCell>
        <mxCell id="3lpn1C94WYs1K-eASdYT-63" style="edgeStyle=orthogonalEdgeStyle;rounded=0;orthogonalLoop=1;jettySize=auto;html=1;exitX=1;exitY=0.5;exitDx=0;exitDy=0;entryX=1;entryY=0.5;entryDx=0;entryDy=0;" parent="1" source="3lpn1C94WYs1K-eASdYT-60" target="3lpn1C94WYs1K-eASdYT-11" edge="1">
          <mxGeometry relative="1" as="geometry" />
        </mxCell>
        <mxCell id="3lpn1C94WYs1K-eASdYT-67" style="edgeStyle=orthogonalEdgeStyle;rounded=0;orthogonalLoop=1;jettySize=auto;html=1;exitX=0;exitY=0.5;exitDx=0;exitDy=0;entryX=1;entryY=0.5;entryDx=0;entryDy=0;" parent="1" source="3lpn1C94WYs1K-eASdYT-60" target="3lpn1C94WYs1K-eASdYT-66" edge="1">
          <mxGeometry relative="1" as="geometry" />
        </mxCell>
        <mxCell id="3lpn1C94WYs1K-eASdYT-60" value="HTTP handlers" style="rounded=0;whiteSpace=wrap;html=1;" parent="1" vertex="1">
          <mxGeometry x="990" y="400" width="60" height="50" as="geometry" />
        </mxCell>
        <mxCell id="3lpn1C94WYs1K-eASdYT-64" style="edgeStyle=orthogonalEdgeStyle;rounded=0;orthogonalLoop=1;jettySize=auto;html=1;exitX=1;exitY=0.5;exitDx=0;exitDy=0;entryX=1;entryY=0.5;entryDx=0;entryDy=0;" parent="1" source="3lpn1C94WYs1K-eASdYT-61" target="3lpn1C94WYs1K-eASdYT-11" edge="1">
          <mxGeometry relative="1" as="geometry" />
        </mxCell>
        <mxCell id="3lpn1C94WYs1K-eASdYT-70" style="edgeStyle=orthogonalEdgeStyle;rounded=0;orthogonalLoop=1;jettySize=auto;html=1;exitX=0;exitY=0.5;exitDx=0;exitDy=0;entryX=1;entryY=0.5;entryDx=0;entryDy=0;" parent="1" source="3lpn1C94WYs1K-eASdYT-61" target="3lpn1C94WYs1K-eASdYT-69" edge="1">
          <mxGeometry relative="1" as="geometry" />
        </mxCell>
        <mxCell id="3lpn1C94WYs1K-eASdYT-61" value="Socket" style="rounded=0;whiteSpace=wrap;html=1;" parent="1" vertex="1">
          <mxGeometry x="990" y="470" width="60" height="50" as="geometry" />
        </mxCell>
        <mxCell id="3lpn1C94WYs1K-eASdYT-65" value="Models, Schemas" style="rounded=0;whiteSpace=wrap;html=1;" parent="1" vertex="1">
          <mxGeometry x="850" y="320" width="120" height="60" as="geometry" />
        </mxCell>
        <mxCell id="3lpn1C94WYs1K-eASdYT-66" value="handlers for user requests that are not related to the socket" style="rounded=0;whiteSpace=wrap;html=1;" parent="1" vertex="1">
          <mxGeometry x="850" y="395" width="120" height="60" as="geometry" />
        </mxCell>
        <mxCell id="3lpn1C94WYs1K-eASdYT-69" value="handlers, events, state update (DB)" style="rounded=0;whiteSpace=wrap;html=1;" parent="1" vertex="1">
          <mxGeometry x="850" y="465" width="120" height="60" as="geometry" />
        </mxCell>
        <mxCell id="3lpn1C94WYs1K-eASdYT-86" style="edgeStyle=orthogonalEdgeStyle;rounded=0;orthogonalLoop=1;jettySize=auto;html=1;exitX=0.5;exitY=0;exitDx=0;exitDy=0;entryX=0.75;entryY=1;entryDx=0;entryDy=0;fillColor=#d5e8d4;strokeColor=#82b366;" parent="1" source="3lpn1C94WYs1K-eASdYT-76" target="3lpn1C94WYs1K-eASdYT-1" edge="1">
          <mxGeometry relative="1" as="geometry">
            <Array as="points">
              <mxPoint x="735" y="780" />
              <mxPoint x="655" y="780" />
            </Array>
          </mxGeometry>
        </mxCell>
        <mxCell id="ze-Fdz6wnuU6C7X-WiTB-6" style="edgeStyle=orthogonalEdgeStyle;rounded=0;orthogonalLoop=1;jettySize=auto;html=1;exitX=0;exitY=0.5;exitDx=0;exitDy=0;entryX=1;entryY=0.5;entryDx=0;entryDy=0;dashed=1;dashPattern=12 12;fillColor=#d5e8d4;strokeColor=#82b366;" edge="1" parent="1" source="3lpn1C94WYs1K-eASdYT-76" target="3lpn1C94WYs1K-eASdYT-83">
          <mxGeometry relative="1" as="geometry" />
        </mxCell>
        <mxCell id="ze-Fdz6wnuU6C7X-WiTB-7" style="edgeStyle=orthogonalEdgeStyle;rounded=0;orthogonalLoop=1;jettySize=auto;html=1;exitX=0.5;exitY=0;exitDx=0;exitDy=0;entryX=1;entryY=0.25;entryDx=0;entryDy=0;fillColor=#d5e8d4;strokeColor=#82b366;dashed=1;dashPattern=12 12;" edge="1" parent="1" source="3lpn1C94WYs1K-eASdYT-76" target="3lpn1C94WYs1K-eASdYT-6">
          <mxGeometry relative="1" as="geometry">
            <Array as="points">
              <mxPoint x="750" y="830" />
              <mxPoint x="750" y="780" />
              <mxPoint x="1120" y="780" />
              <mxPoint x="1120" y="135" />
            </Array>
          </mxGeometry>
        </mxCell>
        <mxCell id="3lpn1C94WYs1K-eASdYT-76" value="UTILS" style="rounded=0;whiteSpace=wrap;html=1;fillColor=#d5e8d4;strokeColor=#82b366;" parent="1" vertex="1">
          <mxGeometry x="675" y="830" width="120" height="60" as="geometry" />
        </mxCell>
        <mxCell id="3lpn1C94WYs1K-eASdYT-82" style="edgeStyle=orthogonalEdgeStyle;rounded=0;orthogonalLoop=1;jettySize=auto;html=1;exitX=0.5;exitY=0;exitDx=0;exitDy=0;entryX=0.5;entryY=1;entryDx=0;entryDy=0;" parent="1" source="3lpn1C94WYs1K-eASdYT-78" target="3lpn1C94WYs1K-eASdYT-76" edge="1">
          <mxGeometry relative="1" as="geometry" />
        </mxCell>
        <mxCell id="3lpn1C94WYs1K-eASdYT-78" value="ConnectMongo" style="rounded=0;whiteSpace=wrap;html=1;" parent="1" vertex="1">
          <mxGeometry x="675" y="940" width="120" height="60" as="geometry" />
        </mxCell>
        <mxCell id="3lpn1C94WYs1K-eASdYT-81" style="edgeStyle=orthogonalEdgeStyle;rounded=0;orthogonalLoop=1;jettySize=auto;html=1;exitX=0.5;exitY=0;exitDx=0;exitDy=0;entryX=1;entryY=0.5;entryDx=0;entryDy=0;" parent="1" source="3lpn1C94WYs1K-eASdYT-80" target="3lpn1C94WYs1K-eASdYT-76" edge="1">
          <mxGeometry relative="1" as="geometry" />
        </mxCell>
        <mxCell id="3lpn1C94WYs1K-eASdYT-80" value="Config" style="rounded=0;whiteSpace=wrap;html=1;" parent="1" vertex="1">
          <mxGeometry x="830" y="940" width="120" height="60" as="geometry" />
        </mxCell>
        <mxCell id="3lpn1C94WYs1K-eASdYT-87" style="edgeStyle=orthogonalEdgeStyle;rounded=0;orthogonalLoop=1;jettySize=auto;html=1;exitX=0.5;exitY=0;exitDx=0;exitDy=0;entryX=0.25;entryY=1;entryDx=0;entryDy=0;fillColor=#e1d5e7;strokeColor=#9673a6;" parent="1" source="3lpn1C94WYs1K-eASdYT-83" target="3lpn1C94WYs1K-eASdYT-1" edge="1">
          <mxGeometry relative="1" as="geometry" />
        </mxCell>
        <mxCell id="3lpn1C94WYs1K-eASdYT-83" value="ENTITIES" style="rounded=0;whiteSpace=wrap;html=1;fillColor=#e1d5e7;strokeColor=#9673a6;" parent="1" vertex="1">
          <mxGeometry x="455" y="830" width="120" height="60" as="geometry" />
        </mxCell>
        <mxCell id="3lpn1C94WYs1K-eASdYT-92" style="edgeStyle=orthogonalEdgeStyle;rounded=0;orthogonalLoop=1;jettySize=auto;html=1;exitX=0.5;exitY=0;exitDx=0;exitDy=0;entryX=0;entryY=0.5;entryDx=0;entryDy=0;" parent="1" source="3lpn1C94WYs1K-eASdYT-88" target="3lpn1C94WYs1K-eASdYT-83" edge="1">
          <mxGeometry relative="1" as="geometry" />
        </mxCell>
        <mxCell id="ze-Fdz6wnuU6C7X-WiTB-10" style="edgeStyle=orthogonalEdgeStyle;rounded=0;orthogonalLoop=1;jettySize=auto;html=1;exitX=0.25;exitY=0;exitDx=0;exitDy=0;entryX=0.75;entryY=0;entryDx=0;entryDy=0;dashed=1;dashPattern=8 8;fillColor=#e1d5e7;strokeColor=#9673a6;" edge="1" parent="1" source="3lpn1C94WYs1K-eASdYT-88" target="ze-Fdz6wnuU6C7X-WiTB-8">
          <mxGeometry relative="1" as="geometry" />
        </mxCell>
        <mxCell id="3lpn1C94WYs1K-eASdYT-88" value="user" style="rounded=0;whiteSpace=wrap;html=1;fillColor=#e1d5e7;strokeColor=#9673a6;" parent="1" vertex="1">
          <mxGeometry x="300" y="940" width="120" height="60" as="geometry" />
        </mxCell>
        <mxCell id="3lpn1C94WYs1K-eASdYT-93" style="edgeStyle=orthogonalEdgeStyle;rounded=0;orthogonalLoop=1;jettySize=auto;html=1;exitX=0.5;exitY=0;exitDx=0;exitDy=0;entryX=0.5;entryY=1;entryDx=0;entryDy=0;" parent="1" source="3lpn1C94WYs1K-eASdYT-89" target="3lpn1C94WYs1K-eASdYT-83" edge="1">
          <mxGeometry relative="1" as="geometry" />
        </mxCell>
        <mxCell id="ze-Fdz6wnuU6C7X-WiTB-11" style="edgeStyle=orthogonalEdgeStyle;rounded=0;orthogonalLoop=1;jettySize=auto;html=1;exitX=0.25;exitY=0;exitDx=0;exitDy=0;entryX=0.75;entryY=0;entryDx=0;entryDy=0;dashed=1;dashPattern=8 8;fillColor=#e1d5e7;strokeColor=#9673a6;" edge="1" parent="1" source="3lpn1C94WYs1K-eASdYT-89" target="ze-Fdz6wnuU6C7X-WiTB-8">
          <mxGeometry relative="1" as="geometry" />
        </mxCell>
        <mxCell id="3lpn1C94WYs1K-eASdYT-89" value="race" style="rounded=0;whiteSpace=wrap;html=1;fillColor=#e1d5e7;strokeColor=#9673a6;" parent="1" vertex="1">
          <mxGeometry x="455" y="940" width="120" height="60" as="geometry" />
        </mxCell>
        <mxCell id="3lpn1C94WYs1K-eASdYT-97" style="edgeStyle=orthogonalEdgeStyle;rounded=0;orthogonalLoop=1;jettySize=auto;html=1;exitX=0;exitY=0.5;exitDx=0;exitDy=0;entryX=0;entryY=0.5;entryDx=0;entryDy=0;" parent="1" source="3lpn1C94WYs1K-eASdYT-94" target="3lpn1C94WYs1K-eASdYT-88" edge="1">
          <mxGeometry relative="1" as="geometry" />
        </mxCell>
        <mxCell id="3lpn1C94WYs1K-eASdYT-94" value="router" style="rounded=0;whiteSpace=wrap;html=1;" parent="1" vertex="1">
          <mxGeometry x="300" y="1030" width="80" height="40" as="geometry" />
        </mxCell>
        <mxCell id="3lpn1C94WYs1K-eASdYT-98" style="edgeStyle=orthogonalEdgeStyle;rounded=0;orthogonalLoop=1;jettySize=auto;html=1;exitX=0;exitY=0.5;exitDx=0;exitDy=0;entryX=0;entryY=0.5;entryDx=0;entryDy=0;" parent="1" source="3lpn1C94WYs1K-eASdYT-95" target="3lpn1C94WYs1K-eASdYT-88" edge="1">
          <mxGeometry relative="1" as="geometry" />
        </mxCell>
        <mxCell id="3lpn1C94WYs1K-eASdYT-95" value="controller" style="rounded=0;whiteSpace=wrap;html=1;" parent="1" vertex="1">
          <mxGeometry x="300" y="1090" width="80" height="40" as="geometry" />
        </mxCell>
        <mxCell id="3lpn1C94WYs1K-eASdYT-99" style="edgeStyle=orthogonalEdgeStyle;rounded=0;orthogonalLoop=1;jettySize=auto;html=1;exitX=0;exitY=0.5;exitDx=0;exitDy=0;entryX=0;entryY=0.5;entryDx=0;entryDy=0;" parent="1" source="3lpn1C94WYs1K-eASdYT-96" target="3lpn1C94WYs1K-eASdYT-88" edge="1">
          <mxGeometry relative="1" as="geometry" />
        </mxCell>
        <mxCell id="3lpn1C94WYs1K-eASdYT-96" value="model" style="rounded=0;whiteSpace=wrap;html=1;" parent="1" vertex="1">
          <mxGeometry x="300" y="1150" width="80" height="40" as="geometry" />
        </mxCell>
        <mxCell id="3lpn1C94WYs1K-eASdYT-103" style="edgeStyle=orthogonalEdgeStyle;rounded=0;orthogonalLoop=1;jettySize=auto;html=1;exitX=1;exitY=0.5;exitDx=0;exitDy=0;entryX=1;entryY=0.5;entryDx=0;entryDy=0;" parent="1" source="3lpn1C94WYs1K-eASdYT-100" target="3lpn1C94WYs1K-eASdYT-89" edge="1">
          <mxGeometry relative="1" as="geometry" />
        </mxCell>
        <mxCell id="3lpn1C94WYs1K-eASdYT-100" value="router" style="rounded=0;whiteSpace=wrap;html=1;" parent="1" vertex="1">
          <mxGeometry x="495" y="1030" width="80" height="40" as="geometry" />
        </mxCell>
        <mxCell id="3lpn1C94WYs1K-eASdYT-104" style="edgeStyle=orthogonalEdgeStyle;rounded=0;orthogonalLoop=1;jettySize=auto;html=1;exitX=1;exitY=0.5;exitDx=0;exitDy=0;entryX=1;entryY=0.5;entryDx=0;entryDy=0;" parent="1" source="3lpn1C94WYs1K-eASdYT-101" target="3lpn1C94WYs1K-eASdYT-89" edge="1">
          <mxGeometry relative="1" as="geometry" />
        </mxCell>
        <mxCell id="3lpn1C94WYs1K-eASdYT-101" value="controller" style="rounded=0;whiteSpace=wrap;html=1;" parent="1" vertex="1">
          <mxGeometry x="495" y="1090" width="80" height="40" as="geometry" />
        </mxCell>
        <mxCell id="3lpn1C94WYs1K-eASdYT-105" style="edgeStyle=orthogonalEdgeStyle;rounded=0;orthogonalLoop=1;jettySize=auto;html=1;exitX=1;exitY=0.5;exitDx=0;exitDy=0;entryX=1;entryY=0.5;entryDx=0;entryDy=0;" parent="1" source="3lpn1C94WYs1K-eASdYT-102" target="3lpn1C94WYs1K-eASdYT-89" edge="1">
          <mxGeometry relative="1" as="geometry" />
        </mxCell>
        <mxCell id="3lpn1C94WYs1K-eASdYT-102" value="model" style="rounded=0;whiteSpace=wrap;html=1;" parent="1" vertex="1">
          <mxGeometry x="495" y="1150" width="80" height="40" as="geometry" />
        </mxCell>
        <mxCell id="ze-Fdz6wnuU6C7X-WiTB-9" style="edgeStyle=orthogonalEdgeStyle;rounded=0;orthogonalLoop=1;jettySize=auto;html=1;exitX=0.5;exitY=0;exitDx=0;exitDy=0;entryX=0;entryY=0.5;entryDx=0;entryDy=0;" edge="1" parent="1" source="ze-Fdz6wnuU6C7X-WiTB-8" target="3lpn1C94WYs1K-eASdYT-83">
          <mxGeometry relative="1" as="geometry" />
        </mxCell>
        <mxCell id="ze-Fdz6wnuU6C7X-WiTB-8" value="progress (by user and race)" style="rounded=0;whiteSpace=wrap;html=1;fillColor=#e1d5e7;strokeColor=#9673a6;" vertex="1" parent="1">
          <mxGeometry x="130" y="940" width="120" height="60" as="geometry" />
        </mxCell>
        <mxCell id="ze-Fdz6wnuU6C7X-WiTB-15" style="edgeStyle=orthogonalEdgeStyle;rounded=0;orthogonalLoop=1;jettySize=auto;html=1;exitX=0;exitY=0.5;exitDx=0;exitDy=0;entryX=0;entryY=0.5;entryDx=0;entryDy=0;" edge="1" parent="1" source="ze-Fdz6wnuU6C7X-WiTB-12" target="ze-Fdz6wnuU6C7X-WiTB-8">
          <mxGeometry relative="1" as="geometry" />
        </mxCell>
        <mxCell id="ze-Fdz6wnuU6C7X-WiTB-12" value="router" style="rounded=0;whiteSpace=wrap;html=1;" vertex="1" parent="1">
          <mxGeometry x="130" y="1030" width="80" height="40" as="geometry" />
        </mxCell>
        <mxCell id="ze-Fdz6wnuU6C7X-WiTB-16" style="edgeStyle=orthogonalEdgeStyle;rounded=0;orthogonalLoop=1;jettySize=auto;html=1;exitX=0;exitY=0.5;exitDx=0;exitDy=0;entryX=0;entryY=0.5;entryDx=0;entryDy=0;" edge="1" parent="1" source="ze-Fdz6wnuU6C7X-WiTB-13" target="ze-Fdz6wnuU6C7X-WiTB-8">
          <mxGeometry relative="1" as="geometry" />
        </mxCell>
        <mxCell id="ze-Fdz6wnuU6C7X-WiTB-13" value="controller" style="rounded=0;whiteSpace=wrap;html=1;" vertex="1" parent="1">
          <mxGeometry x="130" y="1090" width="80" height="40" as="geometry" />
        </mxCell>
        <mxCell id="ze-Fdz6wnuU6C7X-WiTB-17" style="edgeStyle=orthogonalEdgeStyle;rounded=0;orthogonalLoop=1;jettySize=auto;html=1;exitX=0;exitY=0.5;exitDx=0;exitDy=0;entryX=0;entryY=0.5;entryDx=0;entryDy=0;" edge="1" parent="1" source="ze-Fdz6wnuU6C7X-WiTB-14" target="ze-Fdz6wnuU6C7X-WiTB-8">
          <mxGeometry relative="1" as="geometry" />
        </mxCell>
        <mxCell id="ze-Fdz6wnuU6C7X-WiTB-14" value="model" style="rounded=0;whiteSpace=wrap;html=1;" vertex="1" parent="1">
          <mxGeometry x="130" y="1150" width="80" height="40" as="geometry" />
        </mxCell>
      </root>
    </mxGraphModel>
  </diagram>
</mxfile>
